<?xml version="1.0" standalone="no"?><!DOCTYPE svg PUBLIC "-//W3C//DTD SVG 1.1//EN" "http://www.w3.org/Graphics/SVG/1.1/DTD/svg11.dtd"><svg t="1743669585768" class="icon" viewBox="0 0 1024 1024" version="1.1" xmlns="http://www.w3.org/2000/svg" p-id="11334" xmlns:xlink="http://www.w3.org/1999/xlink" width="256" height="256"><path d="M432.9216 197.312a46.272 46.272 0 0 1 56.2688-7.5648 47.104 47.104 0 0 1 21.6832 52.8896 46.6176 46.6176 0 0 1-45.1328 34.688H46.5536C20.8384 277.3376 0 298.3552 0 324.2752S20.8384 371.2 46.5536 371.2h418.9952c63.1296 0.2688 118.72-42.4576 135.2192-104.1152 16.512-61.6448-10.2016-126.7584-65.0752-158.656a138.816 138.816 0 0 0-168.8064 22.7072 47.2064 47.2064 0 0 0 0.192 66.3808 46.2848 46.2848 0 0 0 65.8432-0.2048z m73.6256 695.552a138.816 138.816 0 0 0 168.8064 22.7072c54.8736-31.8976 81.5872-97.024 65.0752-158.656-16.4992-61.6576-72.0896-104.384-135.424-104.1152H46.5536C20.8384 652.8 0 673.8176 0 699.7376s20.8384 46.9248 46.5536 46.9248h558.656a46.6688 46.6688 0 0 1 45.3376 34.7008 47.104 47.104 0 0 1-21.696 52.8896 46.272 46.272 0 0 1-56.2688-7.5648 46.2848 46.2848 0 0 0-65.8432-0.2048 47.2064 47.2064 0 0 0-0.192 66.3808z m305.1776-548.0448a69.4144 69.4144 0 0 1 84.2496-11.1104 70.6432 70.6432 0 0 1 32.5376 79.1296 69.9264 69.9264 0 0 1-67.3408 52.224H46.5536C20.8384 465.0624 0 486.08 0 512s20.8384 46.9376 46.5536 46.9376h814.6944c73.7792-0.128 138.2016-50.112 157.2224-121.8816 19.008-71.7696-12.1216-147.456-75.9168-184.6272a161.9584 161.9584 0 0 0-196.5824 25.9328 47.2064 47.2064 0 0 0-0.0768 66.3808 46.2848 46.2848 0 0 0 65.8304 0.0768z" fill="#00aced" p-id="11335"></path></svg>